<svg xmlns="http://www.w3.org/2000/svg" xmlns:xlink="http://www.w3.org/1999/xlink" width="216" zoomAndPan="magnify" viewBox="0 0 162 161.999997" height="216" preserveAspectRatio="xMidYMid meet" version="1.0"><defs><clipPath id="e26b67031e"><path d="M 0 0 L 161.335938 0 L 161.335938 161.335938 L 0 161.335938 Z M 0 0 " clip-rule="nonzero"/></clipPath><clipPath id="e80978484c"><path d="M 80.667969 0 C 36.117188 0 0 36.117188 0 80.667969 C 0 125.222656 36.117188 161.335938 80.667969 161.335938 C 125.222656 161.335938 161.335938 125.222656 161.335938 80.667969 C 161.335938 36.117188 125.222656 0 80.667969 0 Z M 80.667969 0 " clip-rule="nonzero"/></clipPath><clipPath id="dfeda924f0"><path d="M 25.335938 43.480469 L 136 43.480469 L 136 117.730469 L 25.335938 117.730469 Z M 25.335938 43.480469 " clip-rule="nonzero"/></clipPath><clipPath id="e7c48c326c"><path d="M 3.34375 3.34375 L 157.84375 3.34375 L 157.84375 157.84375 L 3.34375 157.84375 Z M 3.34375 3.34375 " clip-rule="nonzero"/></clipPath><clipPath id="4524a7534e"><path d="M 80.664062 3.34375 C 37.960938 3.34375 3.34375 37.960938 3.34375 80.664062 C 3.34375 123.367188 37.960938 157.984375 80.664062 157.984375 C 123.367188 157.984375 157.984375 123.367188 157.984375 80.664062 C 157.984375 37.960938 123.367188 3.34375 80.664062 3.34375 Z M 80.664062 3.34375 " clip-rule="nonzero"/></clipPath></defs><g clip-path="url(#e26b67031e)"><g clip-path="url(#e80978484c)"><path fill="#558acf" d="M 0 0 L 161.335938 0 L 161.335938 161.335938 L 0 161.335938 Z M 0 0 " fill-opacity="1" fill-rule="nonzero"/></g></g><path fill="#ffffff" d="M 80.667969 111.769531 C 79.644531 111.769531 78.625 111.710938 77.609375 111.59375 C 76.59375 111.476562 75.589844 111.300781 74.59375 111.070312 C 73.597656 110.835938 72.617188 110.546875 71.65625 110.203125 C 70.691406 109.859375 69.753906 109.460938 68.835938 109.007812 C 67.917969 108.558594 67.03125 108.054688 66.171875 107.5 C 65.3125 106.945312 64.488281 106.34375 63.695312 105.695312 C 62.90625 105.046875 62.15625 104.355469 61.445312 103.621094 C 60.734375 102.886719 60.066406 102.113281 59.445312 101.300781 C 58.820312 100.492188 58.246094 99.644531 57.722656 98.769531 C 57.195312 97.890625 56.722656 96.988281 56.300781 96.058594 C 55.878906 95.125 55.511719 94.171875 55.199219 93.199219 C 54.886719 92.226562 54.628906 91.238281 54.429688 90.234375 C 54.230469 89.230469 54.089844 88.222656 54.003906 87.203125 C 53.921875 86.183594 53.898438 85.164062 53.929688 84.140625 C 53.964844 83.117188 54.054688 82.101562 54.207031 81.089844 C 54.355469 80.078125 54.5625 79.078125 54.828125 78.09375 C 55.09375 77.105469 55.414062 76.136719 55.789062 75.183594 C 56.164062 74.234375 56.59375 73.308594 57.074219 72.40625 C 57.558594 71.503906 58.089844 70.632812 58.671875 69.792969 C 59.253906 68.953125 59.878906 68.144531 60.554688 67.378906 C 61.230469 66.609375 61.945312 65.882812 62.703125 65.195312 C 63.460938 64.507812 64.253906 63.867188 65.085938 63.269531 C 65.917969 62.675781 66.777344 62.128906 67.671875 61.632812 C 68.566406 61.136719 69.484375 60.691406 70.429688 60.300781 C 71.375 59.910156 72.339844 59.574219 73.320312 59.292969 C 74.304688 59.011719 75.300781 58.789062 76.308594 58.621094 C 77.320312 58.457031 78.332031 58.347656 79.355469 58.296875 C 80.375 58.246094 81.398438 58.253906 82.417969 58.320312 C 83.4375 58.390625 84.449219 58.511719 85.457031 58.695312 C 86.460938 58.878906 87.453125 59.121094 88.433594 59.417969 C 89.410156 59.714844 90.371094 60.066406 91.308594 60.472656 C 92.246094 60.878906 93.15625 61.335938 94.042969 61.847656 C 94.929688 62.359375 95.78125 62.921875 96.601562 63.527344 C 97.425781 64.136719 98.207031 64.792969 98.953125 65.492188 C 99.699219 66.191406 100.40625 66.929688 101.066406 67.707031 C 101.726562 68.488281 102.34375 69.304688 102.910156 70.152344 C 103.480469 71.003906 103.996094 71.882812 104.464844 72.792969 C 104.929688 73.703125 105.34375 74.636719 105.703125 75.59375 C 106.066406 76.550781 106.367188 77.523438 106.617188 78.515625 C 106.867188 79.507812 107.058594 80.511719 107.191406 81.523438 C 107.324219 82.539062 107.398438 83.554688 107.414062 84.578125 C 107.433594 85.601562 107.390625 86.621094 107.289062 87.636719 C 107.191406 88.65625 107.03125 89.664062 106.816406 90.664062 C 106.601562 91.664062 106.328125 92.648438 106 93.613281 C 105.671875 94.582031 105.289062 95.53125 104.851562 96.453125 C 104.414062 97.378906 103.925781 98.273438 103.386719 99.144531 C 102.84375 100.011719 102.257812 100.84375 101.621094 101.644531 C 100.984375 102.449219 100.308594 103.210938 99.582031 103.933594 C 98.34375 105.179688 96.996094 106.289062 95.535156 107.269531 C 94.074219 108.246094 92.535156 109.074219 90.910156 109.746094 C 89.289062 110.417969 87.613281 110.921875 85.890625 111.265625 C 84.164062 111.605469 82.425781 111.773438 80.667969 111.769531 Z M 80.667969 60.226562 C 79.71875 60.226562 78.777344 60.28125 77.835938 60.390625 C 76.894531 60.5 75.960938 60.660156 75.039062 60.875 C 74.117188 61.089844 73.207031 61.355469 72.316406 61.675781 C 71.425781 61.996094 70.554688 62.363281 69.703125 62.785156 C 68.855469 63.203125 68.03125 63.667969 67.234375 64.183594 C 66.4375 64.695312 65.675781 65.253906 64.941406 65.855469 C 64.210938 66.457031 63.515625 67.097656 62.855469 67.777344 C 62.195312 68.457031 61.578125 69.175781 61 69.925781 C 60.425781 70.675781 59.894531 71.460938 59.40625 72.273438 C 58.917969 73.085938 58.480469 73.921875 58.089844 74.785156 C 57.699219 75.648438 57.355469 76.53125 57.066406 77.433594 C 56.777344 78.335938 56.539062 79.25 56.355469 80.179688 C 56.171875 81.109375 56.039062 82.046875 55.960938 82.992188 C 55.882812 83.933594 55.863281 84.878906 55.890625 85.828125 C 55.921875 86.773438 56.007812 87.714844 56.148438 88.652344 C 56.285156 89.589844 56.480469 90.515625 56.722656 91.433594 C 56.96875 92.347656 57.265625 93.246094 57.613281 94.125 C 57.960938 95.007812 58.359375 95.867188 58.804688 96.703125 C 59.253906 97.535156 59.746094 98.34375 60.285156 99.125 C 60.824219 99.902344 61.40625 100.648438 62.03125 101.359375 C 62.65625 102.074219 63.320312 102.746094 64.019531 103.382812 C 64.722656 104.019531 65.457031 104.613281 66.230469 105.164062 C 67 105.71875 67.796875 106.222656 68.625 106.683594 C 69.453125 107.144531 70.304688 107.554688 71.183594 107.917969 C 72.058594 108.28125 72.949219 108.589844 73.859375 108.851562 C 74.773438 109.113281 75.695312 109.320312 76.628906 109.472656 C 77.566406 109.628906 78.503906 109.726562 79.453125 109.773438 C 80.398438 109.820312 81.34375 109.8125 82.289062 109.75 C 83.234375 109.691406 84.171875 109.574219 85.105469 109.40625 C 86.039062 109.234375 86.957031 109.011719 87.863281 108.738281 C 88.769531 108.460938 89.65625 108.136719 90.527344 107.757812 C 91.398438 107.382812 92.242188 106.957031 93.0625 106.484375 C 93.882812 106.011719 94.671875 105.492188 95.433594 104.925781 C 96.195312 104.363281 96.921875 103.757812 97.613281 103.109375 C 98.304688 102.460938 98.957031 101.777344 99.570312 101.054688 C 100.183594 100.332031 100.753906 99.574219 101.277344 98.789062 C 101.804688 98 102.285156 97.183594 102.71875 96.34375 C 103.152344 95.5 103.535156 94.632812 103.867188 93.746094 C 104.203125 92.859375 104.484375 91.957031 104.714844 91.039062 C 104.945312 90.121094 105.121094 89.191406 105.246094 88.25 C 105.367188 87.3125 105.4375 86.367188 105.453125 85.421875 C 105.46875 84.472656 105.429688 83.527344 105.335938 82.585938 C 105.246094 81.644531 105.097656 80.710938 104.898438 79.78125 C 104.699219 78.855469 104.445312 77.945312 104.140625 77.046875 C 103.835938 76.152344 103.480469 75.273438 103.078125 74.417969 C 102.671875 73.5625 102.21875 72.730469 101.71875 71.925781 C 101.21875 71.121094 100.671875 70.347656 100.085938 69.605469 C 99.496094 68.863281 98.867188 68.15625 98.195312 67.488281 C 97.046875 66.332031 95.796875 65.304688 94.445312 64.394531 C 93.09375 63.488281 91.664062 62.726562 90.160156 62.101562 C 88.65625 61.480469 87.105469 61.007812 85.507812 60.695312 C 83.910156 60.378906 82.296875 60.222656 80.667969 60.226562 Z M 80.667969 60.226562 " fill-opacity="1" fill-rule="nonzero"/><g clip-path="url(#dfeda924f0)"><path fill="#ffffff" d="M 129.078125 117.832031 L 32.257812 117.832031 C 31.804688 117.832031 31.355469 117.785156 30.910156 117.699219 C 30.464844 117.609375 30.03125 117.476562 29.609375 117.304688 C 29.191406 117.128906 28.792969 116.917969 28.414062 116.664062 C 28.039062 116.410156 27.6875 116.125 27.367188 115.804688 C 27.046875 115.484375 26.761719 115.132812 26.507812 114.753906 C 26.253906 114.378906 26.042969 113.980469 25.867188 113.558594 C 25.695312 113.140625 25.5625 112.707031 25.472656 112.261719 C 25.382812 111.816406 25.339844 111.367188 25.339844 110.914062 L 25.339844 59.117188 C 25.339844 58.664062 25.382812 58.214844 25.472656 57.769531 C 25.5625 57.324219 25.695312 56.890625 25.867188 56.472656 C 26.042969 56.054688 26.253906 55.65625 26.507812 55.277344 C 26.761719 54.898438 27.046875 54.550781 27.367188 54.230469 C 27.6875 53.90625 28.039062 53.621094 28.414062 53.367188 C 28.792969 53.117188 29.191406 52.902344 29.609375 52.730469 C 30.03125 52.554688 30.464844 52.421875 30.910156 52.335938 C 31.355469 52.246094 31.804688 52.199219 32.257812 52.199219 L 61.21875 52.199219 L 65.964844 43.980469 C 66.15625 43.652344 66.4375 43.488281 66.816406 43.488281 L 93.175781 43.488281 C 93.554688 43.488281 93.835938 43.652344 94.023438 43.980469 L 98.769531 52.199219 L 129.078125 52.199219 C 129.53125 52.199219 129.980469 52.246094 130.425781 52.335938 C 130.871094 52.421875 131.304688 52.554688 131.722656 52.730469 C 132.144531 52.902344 132.542969 53.117188 132.917969 53.367188 C 133.296875 53.621094 133.648438 53.90625 133.96875 54.230469 C 134.289062 54.550781 134.574219 54.898438 134.828125 55.277344 C 135.082031 55.65625 135.292969 56.054688 135.46875 56.472656 C 135.640625 56.890625 135.773438 57.324219 135.863281 57.769531 C 135.953125 58.214844 135.996094 58.664062 135.996094 59.117188 L 135.996094 110.914062 C 135.996094 111.367188 135.953125 111.816406 135.863281 112.261719 C 135.773438 112.707031 135.640625 113.140625 135.46875 113.558594 C 135.292969 113.980469 135.082031 114.378906 134.828125 114.753906 C 134.574219 115.132812 134.289062 115.484375 133.96875 115.804688 C 133.648438 116.125 133.296875 116.410156 132.917969 116.664062 C 132.542969 116.917969 132.144531 117.128906 131.722656 117.304688 C 131.304688 117.476562 130.871094 117.609375 130.425781 117.699219 C 129.980469 117.785156 129.53125 117.832031 129.078125 117.832031 Z M 32.257812 54.164062 C 31.933594 54.164062 31.609375 54.195312 31.292969 54.257812 C 30.972656 54.324219 30.664062 54.417969 30.363281 54.542969 C 30.0625 54.667969 29.777344 54.820312 29.507812 55 C 29.234375 55.179688 28.984375 55.386719 28.753906 55.617188 C 28.523438 55.847656 28.320312 56.097656 28.140625 56.367188 C 27.957031 56.636719 27.804688 56.921875 27.679688 57.222656 C 27.554688 57.523438 27.460938 57.832031 27.398438 58.152344 C 27.335938 58.472656 27.300781 58.792969 27.300781 59.117188 L 27.300781 110.914062 C 27.300781 111.238281 27.335938 111.5625 27.398438 111.878906 C 27.460938 112.199219 27.554688 112.507812 27.679688 112.808594 C 27.804688 113.109375 27.957031 113.394531 28.140625 113.664062 C 28.320312 113.9375 28.523438 114.1875 28.753906 114.414062 C 28.984375 114.644531 29.234375 114.851562 29.507812 115.03125 C 29.777344 115.214844 30.0625 115.367188 30.363281 115.492188 C 30.664062 115.613281 30.972656 115.710938 31.292969 115.773438 C 31.609375 115.835938 31.933594 115.867188 32.257812 115.867188 L 129.078125 115.867188 C 129.402344 115.867188 129.726562 115.835938 130.042969 115.773438 C 130.363281 115.710938 130.671875 115.613281 130.972656 115.492188 C 131.273438 115.367188 131.558594 115.214844 131.828125 115.03125 C 132.101562 114.851562 132.351562 114.644531 132.582031 114.414062 C 132.808594 114.1875 133.015625 113.9375 133.195312 113.664062 C 133.378906 113.394531 133.53125 113.109375 133.65625 112.808594 C 133.78125 112.507812 133.875 112.199219 133.9375 111.878906 C 134 111.5625 134.035156 111.238281 134.035156 110.914062 L 134.035156 59.117188 C 134.035156 58.792969 134 58.472656 133.9375 58.152344 C 133.875 57.832031 133.78125 57.523438 133.65625 57.222656 C 133.53125 56.921875 133.378906 56.636719 133.195312 56.367188 C 133.015625 56.097656 132.808594 55.847656 132.582031 55.617188 C 132.351562 55.386719 132.101562 55.179688 131.828125 55 C 131.558594 54.820312 131.273438 54.667969 130.972656 54.542969 C 130.671875 54.417969 130.363281 54.324219 130.042969 54.257812 C 129.726562 54.195312 129.402344 54.164062 129.078125 54.164062 L 98.203125 54.164062 C 97.828125 54.164062 97.542969 54 97.355469 53.671875 L 92.609375 45.453125 L 67.382812 45.453125 L 62.636719 53.671875 C 62.449219 54 62.164062 54.164062 61.785156 54.164062 Z M 32.257812 54.164062 " fill-opacity="1" fill-rule="nonzero"/></g><path fill="#ffffff" d="M 49.429688 54.164062 L 35.269531 54.164062 C 35 54.164062 34.769531 54.066406 34.578125 53.875 C 34.386719 53.683594 34.289062 53.453125 34.289062 53.183594 L 34.289062 49.132812 C 34.289062 48.679688 34.378906 48.242188 34.550781 47.824219 C 34.726562 47.402344 34.972656 47.03125 35.292969 46.710938 C 35.613281 46.390625 35.984375 46.144531 36.40625 45.96875 C 36.824219 45.796875 37.261719 45.707031 37.714844 45.707031 L 46.988281 45.707031 C 47.441406 45.707031 47.878906 45.796875 48.296875 45.96875 C 48.71875 46.144531 49.085938 46.390625 49.40625 46.710938 C 49.730469 47.03125 49.976562 47.402344 50.152344 47.824219 C 50.324219 48.242188 50.410156 48.679688 50.414062 49.132812 L 50.414062 53.183594 C 50.414062 53.453125 50.316406 53.683594 50.125 53.875 C 49.933594 54.066406 49.703125 54.164062 49.429688 54.164062 Z M 36.253906 52.199219 L 48.449219 52.199219 L 48.449219 49.132812 C 48.449219 48.9375 48.410156 48.753906 48.335938 48.574219 C 48.261719 48.394531 48.15625 48.238281 48.019531 48.097656 C 47.882812 47.960938 47.726562 47.855469 47.546875 47.78125 C 47.367188 47.707031 47.179688 47.671875 46.988281 47.671875 L 37.714844 47.671875 C 37.519531 47.671875 37.335938 47.707031 37.15625 47.78125 C 36.976562 47.855469 36.816406 47.960938 36.679688 48.097656 C 36.542969 48.238281 36.4375 48.394531 36.363281 48.574219 C 36.289062 48.753906 36.253906 48.9375 36.253906 49.132812 Z M 36.253906 52.199219 " fill-opacity="1" fill-rule="nonzero"/><g clip-path="url(#e7c48c326c)"><g clip-path="url(#4524a7534e)"><path stroke-linecap="butt" transform="matrix(0.75, 0, 0, 0.75, 3.345222, 3.34522)" fill="none" stroke-linejoin="miter" d="M 103.091794 -0.00196057 C 46.15429 -0.00196057 -0.00196257 46.154292 -0.00196257 103.091796 C -0.00196257 160.029299 46.15429 206.185552 103.091794 206.185552 C 160.029297 206.185552 206.18555 160.029299 206.18555 103.091796 C 206.18555 46.154292 160.029297 -0.00196057 103.091794 -0.00196057 Z M 103.091794 -0.00196057 " stroke="#ffde59" stroke-width="8" stroke-opacity="1" stroke-miterlimit="4"/></g></g></svg>