<svg xmlns="http://www.w3.org/2000/svg" xmlns:xlink="http://www.w3.org/1999/xlink" width="369" zoomAndPan="magnify" viewBox="0 0 276.75 78.749999" height="105" preserveAspectRatio="xMidYMid meet" version="1.0"><defs><g/><clipPath id="ee5f9b409c"><path d="M 0.3125 0 L 276.1875 0 L 276.1875 78.5 L 0.3125 78.5 Z M 0.3125 0 " clip-rule="nonzero"/></clipPath><clipPath id="eeca0c3d4a"><path d="M 0.3125 6.25 L 80.292969 6.25 L 80.292969 68.675781 L 0.3125 68.675781 Z M 0.3125 6.25 " clip-rule="nonzero"/></clipPath><clipPath id="63b6c7bc4a"><path d="M 47.058594 1.984375 L 88.414062 1.984375 L 88.414062 78.105469 L 47.058594 78.105469 Z M 47.058594 1.984375 " clip-rule="nonzero"/></clipPath><clipPath id="8e1258290d"><path d="M 47 0 L 60 0 L 60 78.5 L 47 78.5 Z M 47 0 " clip-rule="nonzero"/></clipPath></defs><g clip-path="url(#ee5f9b409c)"><path fill="#ffffff" d="M 0.3125 0 L 276.1875 0 L 276.1875 78.5 L 0.3125 78.5 Z M 0.3125 0 " fill-opacity="1" fill-rule="nonzero"/></g><g clip-path="url(#eeca0c3d4a)"><path fill="#000000" d="M 80.226562 55.503906 C 80.152344 53.082031 80.070312 50.660156 79.960938 48.242188 C 79.847656 45.820312 79.710938 43.402344 79.527344 40.988281 C 79.476562 39.847656 79.378906 38.714844 79.269531 37.582031 C 79.160156 36.453125 79.039062 35.320312 78.941406 34.1875 C 78.863281 32.953125 78.824219 31.71875 78.792969 30.484375 C 78.761719 29.25 78.742188 28.015625 78.691406 26.78125 C 78.601562 23.671875 77.828125 21.929688 76.378906 20.941406 C 74.933594 19.949219 72.808594 19.710938 70.023438 19.609375 C 69.171875 18.542969 68.066406 17.820312 66.875 17.222656 C 65.683594 16.621094 64.414062 16.144531 63.230469 15.5625 C 62.585938 15.242188 61.960938 14.871094 61.375 14.453125 C 60.785156 14.035156 60.234375 13.566406 59.738281 13.046875 C 58.972656 12.160156 58.457031 11.074219 57.859375 10.058594 C 57.261719 9.046875 56.585938 8.105469 55.496094 7.503906 C 54.429688 6.765625 53.273438 6.460938 52.078125 6.355469 C 50.882812 6.25 49.644531 6.34375 48.417969 6.398438 C 47.347656 6.441406 46.28125 6.496094 45.210938 6.566406 C 44.144531 6.636719 43.078125 6.722656 42.015625 6.820312 C 39.535156 6.921875 37.800781 7.386719 36.347656 8.324219 C 34.894531 9.261719 33.726562 10.664062 32.371094 12.640625 C 31.480469 13.746094 30.632812 14.914062 29.714844 16.011719 C 28.800781 17.113281 27.808594 18.140625 26.636719 18.972656 C 25.304688 19.867188 23.796875 20.421875 22.230469 20.757812 C 20.660156 21.09375 19.03125 21.210938 17.457031 21.222656 C 18.535156 20.726562 19.097656 19.945312 19.203125 19.085938 C 19.308594 18.226562 18.953125 17.289062 18.195312 16.464844 C 17.660156 15.859375 16.976562 15.441406 16.234375 15.144531 C 15.492188 14.847656 14.6875 14.675781 13.910156 14.558594 C 11.292969 14.152344 9.316406 15.214844 8.648438 16.699219 C 7.976562 18.1875 8.617188 20.09375 11.230469 21.371094 C 9.320312 21.414062 7.210938 21.71875 5.425781 22.527344 C 3.640625 23.332031 2.175781 24.640625 1.5625 26.683594 C 1.3125 27.507812 1.171875 28.359375 1.082031 29.214844 C 0.988281 30.074219 0.945312 30.9375 0.890625 31.792969 C 0.824219 33.597656 0.796875 35.40625 0.769531 37.210938 C 0.734375 39.019531 0.699219 40.824219 0.609375 42.628906 C 0.585938 43.785156 0.582031 44.945312 0.574219 46.105469 C 0.566406 47.265625 0.550781 48.421875 0.5 49.582031 C 0.417969 50.722656 0.367188 51.867188 0.363281 53.011719 C 0.359375 54.15625 0.40625 55.296875 0.519531 56.4375 C 0.644531 57.738281 0.800781 59.074219 1.097656 60.371094 C 1.394531 61.664062 1.832031 62.917969 2.519531 64.058594 C 3.894531 66.140625 6.457031 67.171875 9.238281 67.710938 C 12.023438 68.25 15.03125 68.300781 17.300781 68.417969 C 19.117188 68.488281 20.933594 68.550781 22.75 68.59375 C 24.570312 68.636719 26.386719 68.664062 28.207031 68.664062 C 28.726562 68.667969 29.25 68.667969 29.773438 68.667969 C 30.296875 68.664062 30.816406 68.652344 31.339844 68.640625 C 31.636719 68.636719 31.929688 68.632812 32.226562 68.625 C 32.519531 68.617188 32.816406 68.609375 33.109375 68.59375 C 33.304688 68.621094 33.523438 68.597656 33.691406 68.507812 C 33.859375 68.421875 33.980469 68.273438 33.980469 68.046875 C 33.964844 67.675781 33.734375 67.550781 33.441406 67.511719 C 33.152344 67.46875 32.804688 67.515625 32.554688 67.488281 C 32.210938 67.488281 31.867188 67.488281 31.523438 67.488281 C 31.179688 67.488281 30.835938 67.488281 30.492188 67.492188 C 29.195312 67.488281 27.894531 67.496094 26.597656 67.503906 C 25.296875 67.507812 23.996094 67.515625 22.699219 67.503906 C 19.851562 67.386719 16.925781 67.457031 14.042969 67.269531 C 11.160156 67.085938 8.316406 66.644531 5.640625 65.511719 C 4.890625 65.152344 4.238281 64.632812 3.714844 64.007812 C 3.191406 63.382812 2.792969 62.652344 2.542969 61.867188 C 1.753906 59.546875 1.457031 57.144531 1.382812 54.722656 C 1.304688 52.296875 1.441406 49.851562 1.519531 47.445312 C 1.511719 45.785156 1.546875 44.128906 1.597656 42.46875 C 1.648438 40.808594 1.714844 39.152344 1.773438 37.492188 C 1.816406 35.886719 1.816406 34.285156 1.878906 32.6875 C 1.941406 31.089844 2.070312 29.492188 2.355469 27.902344 C 2.664062 26.03125 3.746094 24.738281 5.171875 23.894531 C 6.601562 23.046875 8.382812 22.644531 10.085938 22.550781 C 10.742188 22.507812 11.398438 22.460938 12.054688 22.398438 C 12.707031 22.339844 13.363281 22.261719 14.011719 22.164062 C 14.980469 22.3125 15.960938 22.40625 16.941406 22.433594 C 17.921875 22.464844 18.902344 22.433594 19.878906 22.332031 C 23.582031 21.992188 25.957031 21.007812 27.929688 19.429688 C 29.902344 17.851562 31.476562 15.675781 33.589844 12.953125 C 34.3125 11.925781 35.117188 10.882812 36.074219 10.039062 C 37.03125 9.199219 38.136719 8.5625 39.453125 8.355469 C 40.496094 8.1875 41.546875 8.089844 42.605469 8.019531 C 43.660156 7.949219 44.71875 7.898438 45.769531 7.824219 C 46.816406 7.773438 47.859375 7.707031 48.90625 7.65625 C 49.949219 7.609375 50.996094 7.582031 52.042969 7.613281 C 52.894531 7.679688 53.746094 7.945312 54.5 8.371094 C 55.257812 8.796875 55.921875 9.382812 56.410156 10.085938 C 56.824219 10.742188 57.171875 11.445312 57.554688 12.125 C 57.9375 12.804688 58.355469 13.460938 58.910156 14.023438 C 59.390625 14.496094 59.910156 14.933594 60.453125 15.335938 C 61 15.738281 61.574219 16.097656 62.171875 16.417969 C 63.207031 16.984375 64.328125 17.40625 65.410156 17.890625 C 66.492188 18.375 67.539062 18.917969 68.425781 19.722656 C 67.820312 19.84375 67.1875 19.988281 66.589844 20.210938 C 65.992188 20.433594 65.4375 20.734375 64.984375 21.175781 C 64.152344 22.058594 63.996094 23.046875 64.296875 23.933594 C 64.597656 24.820312 65.359375 25.597656 66.355469 26.054688 C 66.761719 26.257812 67.199219 26.367188 67.644531 26.398438 C 68.09375 26.429688 68.546875 26.382812 68.980469 26.285156 C 70.203125 26.023438 70.902344 25.15625 71.167969 24.113281 C 71.4375 23.074219 71.28125 21.859375 70.796875 20.898438 C 71.660156 20.976562 72.601562 21.027344 73.5 21.195312 C 74.398438 21.371094 75.257812 21.664062 75.953125 22.230469 C 76.480469 22.714844 76.769531 23.351562 76.945312 24.03125 C 77.125 24.714844 77.1875 25.441406 77.257812 26.109375 C 77.316406 27.460938 77.332031 28.8125 77.351562 30.164062 C 77.375 31.515625 77.402344 32.867188 77.488281 34.21875 C 77.550781 35.167969 77.652344 36.117188 77.75 37.066406 C 77.847656 38.015625 77.9375 38.964844 77.980469 39.917969 C 78.15625 42.667969 78.332031 45.414062 78.460938 48.167969 C 78.589844 50.917969 78.667969 53.671875 78.660156 56.429688 C 78.648438 56.878906 78.636719 57.328125 78.628906 57.777344 C 78.617188 58.230469 78.601562 58.679688 78.589844 59.128906 C 78.574219 59.863281 78.5625 60.636719 78.414062 61.371094 C 78.269531 62.101562 77.992188 62.792969 77.453125 63.359375 C 75.660156 65.292969 72.464844 65.984375 69.097656 66.222656 C 65.726562 66.457031 62.1875 66.238281 59.707031 66.355469 C 54.246094 66.488281 50.117188 67.164062 46.136719 66.914062 C 42.160156 66.667969 38.328125 65.5 33.453125 61.941406 C 31.925781 60.757812 30.472656 59.417969 29.242188 57.914062 C 28.011719 56.40625 27.003906 54.734375 26.375 52.890625 C 25.863281 51.476562 25.539062 50.007812 25.371094 48.519531 C 25.203125 47.035156 25.195312 45.527344 25.320312 44.035156 C 25.425781 41.695312 25.933594 39.363281 26.796875 37.175781 C 27.660156 34.984375 28.878906 32.933594 30.410156 31.144531 C 32.191406 29.125 34.253906 27.710938 36.527344 26.757812 C 38.800781 25.804688 41.289062 25.320312 43.929688 25.164062 C 45.207031 25.089844 46.5 25.050781 47.785156 25.113281 C 49.066406 25.175781 50.34375 25.335938 51.589844 25.65625 C 53.164062 26.15625 54.71875 26.777344 56.191406 27.550781 C 57.664062 28.320312 59.054688 29.238281 60.300781 30.328125 C 61.171875 31.03125 61.917969 31.851562 62.546875 32.753906 C 63.171875 33.660156 63.683594 34.644531 64.074219 35.683594 C 64.679688 37.042969 65.113281 38.460938 65.429688 39.90625 C 65.746094 41.351562 65.945312 42.824219 66.070312 44.296875 C 66.191406 46.066406 66.21875 47.90625 65.941406 49.671875 C 65.664062 51.441406 65.082031 53.140625 63.992188 54.628906 C 63.21875 55.707031 62.371094 56.742188 61.441406 57.695312 C 60.511719 58.652344 59.5 59.53125 58.40625 60.292969 C 57.667969 60.777344 56.882812 61.179688 56.070312 61.515625 C 55.257812 61.855469 54.414062 62.132812 53.566406 62.367188 C 53.167969 62.480469 52.769531 62.59375 52.371094 62.683594 C 51.96875 62.777344 51.5625 62.84375 51.144531 62.863281 C 50.847656 62.917969 50.410156 62.890625 49.996094 62.898438 C 49.582031 62.910156 49.1875 62.953125 48.980469 63.148438 C 48.746094 63.363281 48.71875 63.683594 48.828125 63.945312 C 48.9375 64.207031 49.183594 64.414062 49.503906 64.402344 C 50.035156 64.382812 50.5625 64.367188 51.09375 64.339844 C 51.625 64.308594 52.15625 64.265625 52.679688 64.1875 C 53.933594 63.96875 55.191406 63.679688 56.398438 63.257812 C 57.605469 62.839844 58.765625 62.292969 59.820312 61.5625 C 61.769531 60.101562 63.640625 58.347656 65.09375 56.335938 C 66.550781 54.320312 67.585938 52.050781 67.855469 49.554688 C 68.167969 46.476562 68.058594 43.296875 67.445312 40.222656 C 66.832031 37.152344 65.714844 34.195312 64.007812 31.566406 C 62.917969 30.101562 61.578125 28.859375 60.097656 27.804688 C 58.617188 26.75 56.992188 25.878906 55.332031 25.148438 C 53.4375 24.214844 51.40625 23.699219 49.332031 23.460938 C 47.257812 23.222656 45.136719 23.265625 43.0625 23.445312 C 40.449219 23.617188 37.886719 24.214844 35.542969 25.265625 C 33.199219 26.316406 31.070312 27.824219 29.328125 29.804688 C 26.769531 32.746094 25.058594 36.335938 24.230469 40.128906 C 23.398438 43.921875 23.449219 47.910156 24.410156 51.652344 C 24.964844 53.859375 25.960938 55.894531 27.261719 57.738281 C 28.558594 59.578125 30.15625 61.222656 31.910156 62.644531 C 33.484375 63.867188 35.183594 64.96875 36.976562 65.882812 C 38.769531 66.796875 40.65625 67.519531 42.613281 67.984375 C 44.753906 68.476562 46.929688 68.554688 49.105469 68.480469 C 51.28125 68.40625 53.46875 68.175781 55.632812 68.054688 C 57.378906 67.929688 59.125 67.898438 60.871094 67.902344 C 62.617188 67.902344 64.363281 67.9375 66.109375 67.949219 C 67.929688 67.941406 69.800781 67.882812 71.628906 67.601562 C 73.453125 67.316406 75.226562 66.8125 76.847656 65.917969 C 78.03125 65.246094 78.878906 64.316406 79.421875 63.21875 C 79.964844 62.125 80.199219 60.871094 80.160156 59.554688 C 80.171875 58.878906 80.191406 58.203125 80.207031 57.53125 C 80.222656 56.855469 80.234375 56.179688 80.226562 55.503906 Z M 16.828125 20.296875 C 16.042969 20.675781 15.054688 20.867188 14.433594 20.988281 C 13.835938 20.898438 13.234375 20.777344 12.65625 20.597656 C 12.078125 20.414062 11.519531 20.171875 11.007812 19.839844 C 10.15625 19.265625 9.683594 18.511719 9.6875 17.796875 C 9.691406 17.085938 10.167969 16.417969 11.214844 16.011719 C 12.101562 15.746094 13.058594 15.695312 13.992188 15.824219 C 14.929688 15.953125 15.839844 16.261719 16.640625 16.707031 C 16.960938 16.917969 17.253906 17.183594 17.496094 17.484375 C 17.738281 17.789062 17.925781 18.128906 18.027344 18.5 C 18.207031 19.359375 17.621094 19.921875 16.832031 20.296875 Z M 70.042969 23.601562 C 69.90625 24.484375 69.34375 25.179688 68.128906 25.210938 C 67.503906 25.273438 66.714844 24.980469 66.148438 24.503906 C 65.582031 24.023438 65.238281 23.359375 65.496094 22.667969 C 65.71875 22.023438 66.390625 21.605469 67.160156 21.335938 C 67.929688 21.066406 68.792969 20.945312 69.398438 20.890625 C 69.890625 21.660156 70.179688 22.726562 70.046875 23.601562 Z M 70.042969 23.601562 " fill-opacity="1" fill-rule="nonzero"/></g><g clip-path="url(#63b6c7bc4a)"><path fill="#ffffff" d="M 47.058594 1.984375 L 88.414062 1.984375 L 88.414062 78.074219 L 47.058594 78.074219 Z M 47.058594 1.984375 " fill-opacity="1" fill-rule="nonzero"/></g><g clip-path="url(#8e1258290d)"><path stroke-linecap="butt" transform="matrix(0.00610172, -0.975345, 0.975345, 0.00610172, 52.573103, 76.113889)" fill="none" stroke-linejoin="miter" d="M -0.000242583 0.501769 L 78.045001 0.498126 " stroke="#000000" stroke-width="1" stroke-opacity="1" stroke-miterlimit="4"/></g><g fill="#3d3b3a" fill-opacity="1"><g transform="translate(60.881203, 33.921633)"><g><path d="M 5.703125 0.21875 C 4.691406 0.21875 3.710938 0.0820312 2.765625 -0.1875 C 1.828125 -0.457031 1.078125 -0.8125 0.515625 -1.25 L 1.515625 -3.484375 C 2.054688 -3.078125 2.703125 -2.75 3.453125 -2.5 C 4.210938 -2.257812 4.96875 -2.140625 5.71875 -2.140625 C 6.550781 -2.140625 7.164062 -2.265625 7.5625 -2.515625 C 7.96875 -2.765625 8.171875 -3.097656 8.171875 -3.515625 C 8.171875 -3.816406 8.050781 -4.066406 7.8125 -4.265625 C 7.582031 -4.460938 7.28125 -4.625 6.90625 -4.75 C 6.539062 -4.875 6.039062 -5.007812 5.40625 -5.15625 C 4.4375 -5.382812 3.640625 -5.613281 3.015625 -5.84375 C 2.398438 -6.070312 1.867188 -6.441406 1.421875 -6.953125 C 0.984375 -7.460938 0.765625 -8.144531 0.765625 -9 C 0.765625 -9.738281 0.960938 -10.40625 1.359375 -11 C 1.765625 -11.601562 2.367188 -12.078125 3.171875 -12.421875 C 3.984375 -12.773438 4.972656 -12.953125 6.140625 -12.953125 C 6.953125 -12.953125 7.742188 -12.851562 8.515625 -12.65625 C 9.296875 -12.46875 9.976562 -12.191406 10.5625 -11.828125 L 9.640625 -9.59375 C 8.460938 -10.257812 7.285156 -10.59375 6.109375 -10.59375 C 5.285156 -10.59375 4.675781 -10.457031 4.28125 -10.1875 C 3.882812 -9.925781 3.6875 -9.578125 3.6875 -9.140625 C 3.6875 -8.703125 3.914062 -8.375 4.375 -8.15625 C 4.832031 -7.945312 5.53125 -7.738281 6.46875 -7.53125 C 7.4375 -7.300781 8.226562 -7.070312 8.84375 -6.84375 C 9.46875 -6.613281 10 -6.25 10.4375 -5.75 C 10.882812 -5.25 11.109375 -4.578125 11.109375 -3.734375 C 11.109375 -3.003906 10.90625 -2.335938 10.5 -1.734375 C 10.09375 -1.140625 9.476562 -0.664062 8.65625 -0.3125 C 7.84375 0.0390625 6.859375 0.21875 5.703125 0.21875 Z M 5.703125 0.21875 "/></g></g></g><g fill="#3d3b3a" fill-opacity="1"><g transform="translate(76.134156, 33.921633)"><g><path d="M 4.15625 -10.34375 L 0.078125 -10.34375 L 0.078125 -12.734375 L 11.171875 -12.734375 L 11.171875 -10.34375 L 7.09375 -10.34375 L 7.09375 0 L 4.15625 0 Z M 4.15625 -10.34375 "/></g></g></g><g fill="#3d3b3a" fill-opacity="1"><g transform="translate(91.023107, 33.921633)"><g><path d="M 7.171875 0.21875 C 5.347656 0.21875 3.929688 -0.28125 2.921875 -1.28125 C 1.910156 -2.289062 1.40625 -3.734375 1.40625 -5.609375 L 1.40625 -12.734375 L 4.34375 -12.734375 L 4.34375 -5.71875 C 4.34375 -3.4375 5.289062 -2.296875 7.1875 -2.296875 C 8.113281 -2.296875 8.816406 -2.570312 9.296875 -3.125 C 9.785156 -3.675781 10.03125 -4.539062 10.03125 -5.71875 L 10.03125 -12.734375 L 12.9375 -12.734375 L 12.9375 -5.609375 C 12.9375 -3.734375 12.429688 -2.289062 11.421875 -1.28125 C 10.410156 -0.28125 8.992188 0.21875 7.171875 0.21875 Z M 7.171875 0.21875 "/></g></g></g><g fill="#3d3b3a" fill-opacity="1"><g transform="translate(109.006065, 33.921633)"><g><path d="M 1.515625 -12.734375 L 7.296875 -12.734375 C 8.679688 -12.734375 9.90625 -12.46875 10.96875 -11.9375 C 12.03125 -11.414062 12.851562 -10.675781 13.4375 -9.71875 C 14.03125 -8.757812 14.328125 -7.644531 14.328125 -6.375 C 14.328125 -5.09375 14.03125 -3.972656 13.4375 -3.015625 C 12.851562 -2.054688 12.03125 -1.3125 10.96875 -0.78125 C 9.90625 -0.257812 8.679688 0 7.296875 0 L 1.515625 0 Z M 7.15625 -2.421875 C 8.425781 -2.421875 9.441406 -2.773438 10.203125 -3.484375 C 10.960938 -4.191406 11.34375 -5.15625 11.34375 -6.375 C 11.34375 -7.582031 10.960938 -8.539062 10.203125 -9.25 C 9.441406 -9.96875 8.425781 -10.328125 7.15625 -10.328125 L 4.453125 -10.328125 L 4.453125 -2.421875 Z M 7.15625 -2.421875 "/></g></g></g><g fill="#3d3b3a" fill-opacity="1"><g transform="translate(127.680631, 33.921633)"><g><path d="M 1.515625 -12.734375 L 4.453125 -12.734375 L 4.453125 0 L 1.515625 0 Z M 1.515625 -12.734375 "/></g></g></g><g fill="#3d3b3a" fill-opacity="1"><g transform="translate(137.291577, 33.921633)"><g><path d="M 7.6875 0.21875 C 6.363281 0.21875 5.171875 -0.0664062 4.109375 -0.640625 C 3.046875 -1.210938 2.210938 -2 1.609375 -3 C 1.003906 -4 0.703125 -5.125 0.703125 -6.375 C 0.703125 -7.625 1.003906 -8.75 1.609375 -9.75 C 2.210938 -10.75 3.046875 -11.53125 4.109375 -12.09375 C 5.171875 -12.664062 6.363281 -12.953125 7.6875 -12.953125 C 9.007812 -12.953125 10.195312 -12.664062 11.25 -12.09375 C 12.300781 -11.53125 13.128906 -10.75 13.734375 -9.75 C 14.347656 -8.75 14.65625 -7.625 14.65625 -6.375 C 14.65625 -5.125 14.347656 -4 13.734375 -3 C 13.128906 -2 12.300781 -1.210938 11.25 -0.640625 C 10.195312 -0.0664062 9.007812 0.21875 7.6875 0.21875 Z M 7.6875 -2.296875 C 8.4375 -2.296875 9.113281 -2.46875 9.71875 -2.8125 C 10.320312 -3.15625 10.796875 -3.632812 11.140625 -4.25 C 11.492188 -4.875 11.671875 -5.582031 11.671875 -6.375 C 11.671875 -7.15625 11.492188 -7.851562 11.140625 -8.46875 C 10.796875 -9.09375 10.320312 -9.578125 9.71875 -9.921875 C 9.113281 -10.273438 8.4375 -10.453125 7.6875 -10.453125 C 6.925781 -10.453125 6.242188 -10.273438 5.640625 -9.921875 C 5.035156 -9.578125 4.554688 -9.09375 4.203125 -8.46875 C 3.859375 -7.851562 3.6875 -7.15625 3.6875 -6.375 C 3.6875 -5.582031 3.859375 -4.875 4.203125 -4.25 C 4.554688 -3.632812 5.035156 -3.15625 5.640625 -2.8125 C 6.242188 -2.46875 6.925781 -2.296875 7.6875 -2.296875 Z M 7.6875 -2.296875 "/></g></g></g><g fill="#3d3b3a" fill-opacity="1"><g transform="translate(156.293738, 33.921633)"><g/></g></g><g fill="#3d3b3a" fill-opacity="1"><g transform="translate(165.085696, 33.921633)"><g><path d="M 13.109375 0 L 13.09375 -7.640625 L 9.34375 -1.34375 L 8.015625 -1.34375 L 4.28125 -7.484375 L 4.28125 0 L 1.515625 0 L 1.515625 -12.734375 L 3.953125 -12.734375 L 8.71875 -4.828125 L 13.421875 -12.734375 L 15.84375 -12.734375 L 15.875 0 Z M 13.109375 0 "/></g></g></g><g fill="#3d3b3a" fill-opacity="1"><g transform="translate(186.108059, 33.921633)"><g><path d="M 1.515625 -12.734375 L 4.453125 -12.734375 L 4.453125 0 L 1.515625 0 Z M 1.515625 -12.734375 "/></g></g></g><g fill="#3d3b3a" fill-opacity="1"><g transform="translate(195.719012, 33.921633)"><g><path d="M 9.53125 0 L 6.46875 -4.421875 L 3.4375 0 L 0.046875 0 L 4.765625 -6.484375 L 0.296875 -12.734375 L 3.640625 -12.734375 L 6.578125 -8.609375 L 9.453125 -12.734375 L 12.640625 -12.734375 L 8.1875 -6.59375 L 12.9375 0 Z M 9.53125 0 "/></g></g></g><g fill="#3d3b3a" fill-opacity="1"><g transform="translate(60.881203, 59.592411)"><g><path d="M 6.84375 -12.734375 C 8.46875 -12.734375 9.738281 -12.34375 10.65625 -11.5625 C 11.582031 -10.789062 12.046875 -9.726562 12.046875 -8.375 C 12.046875 -7.007812 11.582031 -5.941406 10.65625 -5.171875 C 9.738281 -4.398438 8.46875 -4.015625 6.84375 -4.015625 L 3.421875 -4.015625 L 3.421875 0 L 2.078125 0 L 2.078125 -12.734375 Z M 6.8125 -5.203125 C 8.070312 -5.203125 9.035156 -5.476562 9.703125 -6.03125 C 10.367188 -6.582031 10.703125 -7.363281 10.703125 -8.375 C 10.703125 -9.40625 10.367188 -10.195312 9.703125 -10.75 C 9.035156 -11.300781 8.070312 -11.578125 6.8125 -11.578125 L 3.421875 -11.578125 L 3.421875 -5.203125 Z M 6.8125 -5.203125 "/></g></g></g><g fill="#3d3b3a" fill-opacity="1"><g transform="translate(76.916505, 59.592411)"><g><path d="M 12.71875 -12.734375 L 12.71875 0 L 11.390625 0 L 11.390625 -5.875 L 3.421875 -5.875 L 3.421875 0 L 2.078125 0 L 2.078125 -12.734375 L 3.421875 -12.734375 L 3.421875 -7.0625 L 11.390625 -7.0625 L 11.390625 -12.734375 Z M 12.71875 -12.734375 "/></g></g></g><g fill="#3d3b3a" fill-opacity="1"><g transform="translate(94.68082, 59.592411)"><g><path d="M 7.640625 0.109375 C 6.378906 0.109375 5.234375 -0.171875 4.203125 -0.734375 C 3.179688 -1.296875 2.382812 -2.066406 1.8125 -3.046875 C 1.238281 -4.035156 0.953125 -5.144531 0.953125 -6.375 C 0.953125 -7.59375 1.238281 -8.691406 1.8125 -9.671875 C 2.382812 -10.660156 3.179688 -11.4375 4.203125 -12 C 5.234375 -12.5625 6.378906 -12.84375 7.640625 -12.84375 C 8.898438 -12.84375 10.035156 -12.5625 11.046875 -12 C 12.066406 -11.445312 12.867188 -10.675781 13.453125 -9.6875 C 14.035156 -8.695312 14.328125 -7.59375 14.328125 -6.375 C 14.328125 -5.144531 14.035156 -4.035156 13.453125 -3.046875 C 12.867188 -2.054688 12.066406 -1.28125 11.046875 -0.71875 C 10.035156 -0.164062 8.898438 0.109375 7.640625 0.109375 Z M 7.640625 -1.09375 C 8.648438 -1.09375 9.5625 -1.316406 10.375 -1.765625 C 11.1875 -2.222656 11.820312 -2.851562 12.28125 -3.65625 C 12.75 -4.46875 12.984375 -5.375 12.984375 -6.375 C 12.984375 -7.363281 12.75 -8.257812 12.28125 -9.0625 C 11.820312 -9.875 11.1875 -10.507812 10.375 -10.96875 C 9.5625 -11.425781 8.648438 -11.65625 7.640625 -11.65625 C 6.640625 -11.65625 5.726562 -11.425781 4.90625 -10.96875 C 4.082031 -10.507812 3.4375 -9.875 2.96875 -9.0625 C 2.507812 -8.257812 2.28125 -7.363281 2.28125 -6.375 C 2.28125 -5.375 2.507812 -4.46875 2.96875 -3.65625 C 3.4375 -2.851562 4.082031 -2.222656 4.90625 -1.765625 C 5.726562 -1.316406 6.640625 -1.09375 7.640625 -1.09375 Z M 7.640625 -1.09375 "/></g></g></g><g fill="#3d3b3a" fill-opacity="1"><g transform="translate(112.918333, 59.592411)"><g><path d="M 4.546875 -11.578125 L 0.078125 -11.578125 L 0.078125 -12.734375 L 10.375 -12.734375 L 10.375 -11.578125 L 5.890625 -11.578125 L 5.890625 0 L 4.546875 0 Z M 4.546875 -11.578125 "/></g></g></g><g fill="#3d3b3a" fill-opacity="1"><g transform="translate(126.332836, 59.592411)"><g><path d="M 7.640625 0.109375 C 6.378906 0.109375 5.234375 -0.171875 4.203125 -0.734375 C 3.179688 -1.296875 2.382812 -2.066406 1.8125 -3.046875 C 1.238281 -4.035156 0.953125 -5.144531 0.953125 -6.375 C 0.953125 -7.59375 1.238281 -8.691406 1.8125 -9.671875 C 2.382812 -10.660156 3.179688 -11.4375 4.203125 -12 C 5.234375 -12.5625 6.378906 -12.84375 7.640625 -12.84375 C 8.898438 -12.84375 10.035156 -12.5625 11.046875 -12 C 12.066406 -11.445312 12.867188 -10.675781 13.453125 -9.6875 C 14.035156 -8.695312 14.328125 -7.59375 14.328125 -6.375 C 14.328125 -5.144531 14.035156 -4.035156 13.453125 -3.046875 C 12.867188 -2.054688 12.066406 -1.28125 11.046875 -0.71875 C 10.035156 -0.164062 8.898438 0.109375 7.640625 0.109375 Z M 7.640625 -1.09375 C 8.648438 -1.09375 9.5625 -1.316406 10.375 -1.765625 C 11.1875 -2.222656 11.820312 -2.851562 12.28125 -3.65625 C 12.75 -4.46875 12.984375 -5.375 12.984375 -6.375 C 12.984375 -7.363281 12.75 -8.257812 12.28125 -9.0625 C 11.820312 -9.875 11.1875 -10.507812 10.375 -10.96875 C 9.5625 -11.425781 8.648438 -11.65625 7.640625 -11.65625 C 6.640625 -11.65625 5.726562 -11.425781 4.90625 -10.96875 C 4.082031 -10.507812 3.4375 -9.875 2.96875 -9.0625 C 2.507812 -8.257812 2.28125 -7.363281 2.28125 -6.375 C 2.28125 -5.375 2.507812 -4.46875 2.96875 -3.65625 C 3.4375 -2.851562 4.082031 -2.222656 4.90625 -1.765625 C 5.726562 -1.316406 6.640625 -1.09375 7.640625 -1.09375 Z M 7.640625 -1.09375 "/></g></g></g><g fill="#3d3b3a" fill-opacity="1"><g transform="translate(144.570349, 59.592411)"><g><path d="M 5.59375 0.109375 C 4.644531 0.109375 3.734375 -0.0390625 2.859375 -0.34375 C 1.992188 -0.644531 1.328125 -1.046875 0.859375 -1.546875 L 1.390625 -2.578125 C 1.847656 -2.117188 2.457031 -1.742188 3.21875 -1.453125 C 3.988281 -1.171875 4.78125 -1.03125 5.59375 -1.03125 C 6.726562 -1.03125 7.582031 -1.238281 8.15625 -1.65625 C 8.726562 -2.082031 9.015625 -2.628906 9.015625 -3.296875 C 9.015625 -3.804688 8.859375 -4.210938 8.546875 -4.515625 C 8.234375 -4.816406 7.851562 -5.046875 7.40625 -5.203125 C 6.957031 -5.367188 6.332031 -5.550781 5.53125 -5.75 C 4.570312 -5.988281 3.804688 -6.222656 3.234375 -6.453125 C 2.671875 -6.679688 2.1875 -7.023438 1.78125 -7.484375 C 1.375 -7.941406 1.171875 -8.566406 1.171875 -9.359375 C 1.171875 -10.003906 1.335938 -10.585938 1.671875 -11.109375 C 2.015625 -11.640625 2.535156 -12.0625 3.234375 -12.375 C 3.941406 -12.6875 4.816406 -12.84375 5.859375 -12.84375 C 6.585938 -12.84375 7.300781 -12.742188 8 -12.546875 C 8.695312 -12.347656 9.300781 -12.070312 9.8125 -11.71875 L 9.359375 -10.65625 C 8.828125 -11 8.253906 -11.257812 7.640625 -11.4375 C 7.035156 -11.613281 6.441406 -11.703125 5.859375 -11.703125 C 4.742188 -11.703125 3.90625 -11.484375 3.34375 -11.046875 C 2.78125 -10.617188 2.5 -10.066406 2.5 -9.390625 C 2.5 -8.878906 2.648438 -8.46875 2.953125 -8.15625 C 3.265625 -7.851562 3.65625 -7.617188 4.125 -7.453125 C 4.59375 -7.285156 5.21875 -7.109375 6 -6.921875 C 6.9375 -6.691406 7.691406 -6.460938 8.265625 -6.234375 C 8.847656 -6.003906 9.335938 -5.660156 9.734375 -5.203125 C 10.140625 -4.753906 10.34375 -4.144531 10.34375 -3.375 C 10.34375 -2.726562 10.164062 -2.140625 9.8125 -1.609375 C 9.46875 -1.078125 8.9375 -0.65625 8.21875 -0.34375 C 7.507812 -0.0390625 6.632812 0.109375 5.59375 0.109375 Z M 5.59375 0.109375 "/></g></g></g><g fill="#3d3b3a" fill-opacity="1"><g transform="translate(158.731053, 59.592411)"><g><path d="M 12.71875 -12.734375 L 12.71875 0 L 11.390625 0 L 11.390625 -5.875 L 3.421875 -5.875 L 3.421875 0 L 2.078125 0 L 2.078125 -12.734375 L 3.421875 -12.734375 L 3.421875 -7.0625 L 11.390625 -7.0625 L 11.390625 -12.734375 Z M 12.71875 -12.734375 "/></g></g></g><g fill="#3d3b3a" fill-opacity="1"><g transform="translate(176.495362, 59.592411)"><g><path d="M 7.640625 0.109375 C 6.378906 0.109375 5.234375 -0.171875 4.203125 -0.734375 C 3.179688 -1.296875 2.382812 -2.066406 1.8125 -3.046875 C 1.238281 -4.035156 0.953125 -5.144531 0.953125 -6.375 C 0.953125 -7.59375 1.238281 -8.691406 1.8125 -9.671875 C 2.382812 -10.660156 3.179688 -11.4375 4.203125 -12 C 5.234375 -12.5625 6.378906 -12.84375 7.640625 -12.84375 C 8.898438 -12.84375 10.035156 -12.5625 11.046875 -12 C 12.066406 -11.445312 12.867188 -10.675781 13.453125 -9.6875 C 14.035156 -8.695312 14.328125 -7.59375 14.328125 -6.375 C 14.328125 -5.144531 14.035156 -4.035156 13.453125 -3.046875 C 12.867188 -2.054688 12.066406 -1.28125 11.046875 -0.71875 C 10.035156 -0.164062 8.898438 0.109375 7.640625 0.109375 Z M 7.640625 -1.09375 C 8.648438 -1.09375 9.5625 -1.316406 10.375 -1.765625 C 11.1875 -2.222656 11.820312 -2.851562 12.28125 -3.65625 C 12.75 -4.46875 12.984375 -5.375 12.984375 -6.375 C 12.984375 -7.363281 12.75 -8.257812 12.28125 -9.0625 C 11.820312 -9.875 11.1875 -10.507812 10.375 -10.96875 C 9.5625 -11.425781 8.648438 -11.65625 7.640625 -11.65625 C 6.640625 -11.65625 5.726562 -11.425781 4.90625 -10.96875 C 4.082031 -10.507812 3.4375 -9.875 2.96875 -9.0625 C 2.507812 -8.257812 2.28125 -7.363281 2.28125 -6.375 C 2.28125 -5.375 2.507812 -4.46875 2.96875 -3.65625 C 3.4375 -2.851562 4.082031 -2.222656 4.90625 -1.765625 C 5.726562 -1.316406 6.640625 -1.09375 7.640625 -1.09375 Z M 7.640625 -1.09375 "/></g></g></g><g fill="#3d3b3a" fill-opacity="1"><g transform="translate(194.732881, 59.592411)"><g><path d="M 6.84375 -12.734375 C 8.46875 -12.734375 9.738281 -12.34375 10.65625 -11.5625 C 11.582031 -10.789062 12.046875 -9.726562 12.046875 -8.375 C 12.046875 -7.007812 11.582031 -5.941406 10.65625 -5.171875 C 9.738281 -4.398438 8.46875 -4.015625 6.84375 -4.015625 L 3.421875 -4.015625 L 3.421875 0 L 2.078125 0 L 2.078125 -12.734375 Z M 6.8125 -5.203125 C 8.070312 -5.203125 9.035156 -5.476562 9.703125 -6.03125 C 10.367188 -6.582031 10.703125 -7.363281 10.703125 -8.375 C 10.703125 -9.40625 10.367188 -10.195312 9.703125 -10.75 C 9.035156 -11.300781 8.070312 -11.578125 6.8125 -11.578125 L 3.421875 -11.578125 L 3.421875 -5.203125 Z M 6.8125 -5.203125 "/></g></g></g></svg>