<svg xmlns="http://www.w3.org/2000/svg" xmlns:xlink="http://www.w3.org/1999/xlink" width="381" zoomAndPan="magnify" viewBox="0 0 285.75 78.749999" height="105" preserveAspectRatio="xMidYMid meet" version="1.0"><defs><g/><clipPath id="108bd3c8f6"><path d="M 0.328125 1.984375 L 110.976562 1.984375 L 110.976562 76 L 0.328125 76 Z M 0.328125 1.984375 " clip-rule="nonzero"/></clipPath><clipPath id="1fc822fdc4"><path d="M 56.523438 1.984375 L 122.222656 1.984375 L 122.222656 78.105469 L 56.523438 78.105469 Z M 56.523438 1.984375 " clip-rule="nonzero"/></clipPath><clipPath id="03cd2370a9"><path d="M 58 0 L 68 0 L 68 78.5 L 58 78.5 Z M 58 0 " clip-rule="nonzero"/></clipPath></defs><path fill="#558acf" d="M 55.484375 70.054688 C 54.464844 70.054688 53.449219 69.996094 52.433594 69.878906 C 51.421875 69.761719 50.417969 69.589844 49.425781 69.355469 C 48.433594 69.125 47.457031 68.839844 46.5 68.496094 C 45.539062 68.152344 44.601562 67.753906 43.6875 67.304688 C 42.773438 66.851562 41.886719 66.351562 41.03125 65.800781 C 40.175781 65.246094 39.351562 64.648438 38.566406 64 C 37.777344 63.355469 37.027344 62.664062 36.320312 61.933594 C 35.609375 61.199219 34.945312 60.429688 34.328125 59.621094 C 33.707031 58.8125 33.132812 57.96875 32.609375 57.097656 C 32.085938 56.222656 31.613281 55.320312 31.191406 54.390625 C 30.773438 53.464844 30.40625 52.515625 30.09375 51.542969 C 29.78125 50.574219 29.527344 49.589844 29.328125 48.589844 C 29.128906 47.589844 28.988281 46.582031 28.90625 45.566406 C 28.820312 44.550781 28.796875 43.53125 28.828125 42.515625 C 28.863281 41.496094 28.953125 40.480469 29.105469 39.472656 C 29.253906 38.464844 29.460938 37.46875 29.722656 36.484375 C 29.988281 35.5 30.308594 34.535156 30.683594 33.585938 C 31.054688 32.636719 31.484375 31.714844 31.964844 30.816406 C 32.445312 29.917969 32.976562 29.050781 33.554688 28.210938 C 34.136719 27.371094 34.761719 26.570312 35.433594 25.804688 C 36.105469 25.039062 36.820312 24.3125 37.574219 23.628906 C 38.328125 22.945312 39.121094 22.304688 39.949219 21.710938 C 40.777344 21.117188 41.636719 20.574219 42.527344 20.078125 C 43.417969 19.582031 44.335938 19.140625 45.277344 18.75 C 46.21875 18.359375 47.179688 18.023438 48.160156 17.746094 C 49.140625 17.464844 50.132812 17.242188 51.136719 17.074219 C 52.144531 16.910156 53.15625 16.800781 54.171875 16.753906 C 55.191406 16.703125 56.210938 16.710938 57.226562 16.777344 C 58.242188 16.84375 59.253906 16.96875 60.257812 17.152344 C 61.257812 17.332031 62.246094 17.574219 63.222656 17.867188 C 64.199219 18.164062 65.152344 18.515625 66.089844 18.921875 C 67.023438 19.324219 67.933594 19.78125 68.816406 20.292969 C 69.699219 20.800781 70.550781 21.359375 71.367188 21.96875 C 72.1875 22.574219 72.96875 23.226562 73.710938 23.921875 C 74.457031 24.621094 75.15625 25.355469 75.816406 26.132812 C 76.476562 26.910156 77.089844 27.722656 77.65625 28.570312 C 78.222656 29.417969 78.738281 30.296875 79.203125 31.203125 C 79.667969 32.109375 80.082031 33.039062 80.441406 33.992188 C 80.800781 34.945312 81.101562 35.917969 81.351562 36.90625 C 81.597656 37.894531 81.789062 38.894531 81.921875 39.90625 C 82.054688 40.917969 82.128906 41.929688 82.144531 42.949219 C 82.164062 43.96875 82.121094 44.984375 82.019531 46 C 81.921875 47.015625 81.761719 48.019531 81.546875 49.015625 C 81.332031 50.011719 81.0625 50.992188 80.734375 51.957031 C 80.40625 52.921875 80.023438 53.867188 79.589844 54.789062 C 79.152344 55.710938 78.667969 56.601562 78.128906 57.46875 C 77.589844 58.335938 77.003906 59.167969 76.371094 59.964844 C 75.738281 60.761719 75.058594 61.523438 74.339844 62.242188 C 73.105469 63.484375 71.757812 64.59375 70.304688 65.570312 C 68.847656 66.542969 67.3125 67.367188 65.691406 68.039062 C 64.074219 68.707031 62.40625 69.210938 60.6875 69.550781 C 58.96875 69.890625 57.234375 70.058594 55.484375 70.054688 Z M 55.484375 18.675781 C 54.539062 18.675781 53.597656 18.730469 52.660156 18.839844 C 51.71875 18.945312 50.792969 19.109375 49.871094 19.320312 C 48.953125 19.535156 48.046875 19.804688 47.15625 20.121094 C 46.269531 20.4375 45.402344 20.808594 44.554688 21.226562 C 43.707031 21.644531 42.886719 22.109375 42.09375 22.621094 C 41.296875 23.132812 40.535156 23.6875 39.804688 24.285156 C 39.078125 24.886719 38.382812 25.523438 37.726562 26.203125 C 37.070312 26.882812 36.453125 27.59375 35.878906 28.34375 C 35.304688 29.09375 34.773438 29.875 34.289062 30.683594 C 33.800781 31.492188 33.363281 32.328125 32.976562 33.1875 C 32.585938 34.050781 32.246094 34.929688 31.957031 35.828125 C 31.667969 36.726562 31.429688 37.640625 31.246094 38.566406 C 31.0625 39.492188 30.933594 40.425781 30.855469 41.367188 C 30.777344 42.308594 30.753906 43.25 30.785156 44.195312 C 30.816406 45.140625 30.902344 46.078125 31.039062 47.011719 C 31.179688 47.945312 31.371094 48.871094 31.613281 49.78125 C 31.859375 50.695312 32.15625 51.589844 32.5 52.46875 C 32.847656 53.347656 33.246094 54.203125 33.691406 55.035156 C 34.136719 55.867188 34.625 56.671875 35.164062 57.449219 C 35.703125 58.226562 36.28125 58.96875 36.90625 59.679688 C 37.527344 60.390625 38.1875 61.0625 38.886719 61.695312 C 39.589844 62.332031 40.320312 62.921875 41.089844 63.472656 C 41.855469 64.023438 42.652344 64.527344 43.480469 64.984375 C 44.304688 65.445312 45.152344 65.855469 46.027344 66.214844 C 46.898438 66.578125 47.789062 66.886719 48.699219 67.148438 C 49.605469 67.40625 50.527344 67.613281 51.457031 67.765625 C 52.390625 67.921875 53.328125 68.019531 54.269531 68.066406 C 55.214844 68.113281 56.15625 68.105469 57.097656 68.042969 C 58.042969 67.980469 58.976562 67.867188 59.90625 67.699219 C 60.835938 67.527344 61.75 67.308594 62.65625 67.03125 C 63.558594 66.757812 64.445312 66.433594 65.3125 66.058594 C 66.175781 65.683594 67.019531 65.257812 67.835938 64.785156 C 68.65625 64.3125 69.445312 63.796875 70.203125 63.234375 C 70.960938 62.671875 71.683594 62.066406 72.375 61.421875 C 73.0625 60.777344 73.714844 60.09375 74.324219 59.375 C 74.9375 58.652344 75.503906 57.898438 76.027344 57.113281 C 76.554688 56.328125 77.03125 55.515625 77.460938 54.675781 C 77.894531 53.835938 78.277344 52.976562 78.609375 52.089844 C 78.941406 51.207031 79.222656 50.308594 79.453125 49.390625 C 79.683594 48.476562 79.859375 47.546875 79.980469 46.613281 C 80.105469 45.675781 80.175781 44.734375 80.1875 43.792969 C 80.203125 42.847656 80.167969 41.90625 80.074219 40.964844 C 79.980469 40.023438 79.835938 39.09375 79.636719 38.171875 C 79.4375 37.246094 79.183594 36.339844 78.882812 35.445312 C 78.578125 34.550781 78.222656 33.675781 77.820312 32.820312 C 77.417969 31.96875 76.964844 31.140625 76.464844 30.339844 C 75.96875 29.535156 75.425781 28.765625 74.835938 28.027344 C 74.25 27.285156 73.625 26.582031 72.957031 25.914062 C 71.8125 24.761719 70.5625 23.734375 69.214844 22.832031 C 67.867188 21.929688 66.445312 21.167969 64.945312 20.546875 C 63.445312 19.925781 61.898438 19.457031 60.304688 19.140625 C 58.714844 18.828125 57.105469 18.671875 55.484375 18.675781 Z M 55.484375 18.675781 " fill-opacity="1" fill-rule="nonzero"/><g clip-path="url(#108bd3c8f6)"><path fill="#558acf" d="M 103.738281 76.097656 L 7.226562 76.097656 C 6.773438 76.097656 6.324219 76.054688 5.878906 75.964844 C 5.4375 75.875 5.003906 75.746094 4.585938 75.570312 C 4.167969 75.398438 3.773438 75.1875 3.394531 74.933594 C 3.019531 74.683594 2.671875 74.398438 2.351562 74.078125 C 2.03125 73.757812 1.746094 73.410156 1.492188 73.03125 C 1.242188 72.65625 1.03125 72.257812 0.855469 71.839844 C 0.683594 71.421875 0.550781 70.992188 0.460938 70.546875 C 0.375 70.105469 0.328125 69.65625 0.328125 69.203125 L 0.328125 17.570312 C 0.328125 17.117188 0.375 16.671875 0.460938 16.226562 C 0.550781 15.78125 0.683594 15.351562 0.855469 14.933594 C 1.03125 14.515625 1.242188 14.117188 1.492188 13.742188 C 1.746094 13.367188 2.03125 13.015625 2.351562 12.695312 C 2.671875 12.378906 3.019531 12.089844 3.394531 11.839844 C 3.773438 11.589844 4.167969 11.375 4.585938 11.203125 C 5.003906 11.027344 5.4375 10.898438 5.878906 10.808594 C 6.324219 10.71875 6.773438 10.675781 7.226562 10.675781 L 36.097656 10.675781 L 40.828125 2.480469 C 41.015625 2.15625 41.296875 1.992188 41.675781 1.992188 L 67.949219 1.992188 C 68.328125 1.992188 68.609375 2.15625 68.796875 2.480469 L 73.527344 10.675781 L 103.738281 10.675781 C 104.191406 10.675781 104.640625 10.71875 105.085938 10.808594 C 105.527344 10.898438 105.960938 11.027344 106.378906 11.203125 C 106.796875 11.375 107.191406 11.589844 107.570312 11.839844 C 107.945312 12.089844 108.292969 12.378906 108.613281 12.695312 C 108.933594 13.015625 109.21875 13.367188 109.472656 13.742188 C 109.722656 14.117188 109.9375 14.515625 110.109375 14.933594 C 110.28125 15.351562 110.414062 15.78125 110.503906 16.226562 C 110.589844 16.671875 110.636719 17.117188 110.636719 17.570312 L 110.636719 69.203125 C 110.636719 69.65625 110.589844 70.105469 110.503906 70.546875 C 110.414062 70.992188 110.28125 71.421875 110.109375 71.839844 C 109.9375 72.257812 109.722656 72.65625 109.472656 73.03125 C 109.21875 73.410156 108.933594 73.757812 108.613281 74.078125 C 108.292969 74.398438 107.945312 74.683594 107.570312 74.933594 C 107.191406 75.1875 106.796875 75.398438 106.378906 75.570312 C 105.960938 75.746094 105.527344 75.875 105.085938 75.964844 C 104.640625 76.054688 104.191406 76.097656 103.738281 76.097656 Z M 7.226562 12.632812 C 6.902344 12.632812 6.578125 12.664062 6.261719 12.726562 C 5.945312 12.789062 5.636719 12.886719 5.335938 13.007812 C 5.035156 13.132812 4.753906 13.285156 4.484375 13.464844 C 4.214844 13.644531 3.964844 13.851562 3.734375 14.078125 C 3.503906 14.308594 3.300781 14.558594 3.121094 14.828125 C 2.941406 15.097656 2.789062 15.382812 2.664062 15.683594 C 2.539062 15.980469 2.445312 16.289062 2.382812 16.609375 C 2.316406 16.925781 2.285156 17.246094 2.285156 17.570312 L 2.285156 69.203125 C 2.285156 69.527344 2.316406 69.847656 2.382812 70.164062 C 2.445312 70.484375 2.539062 70.792969 2.664062 71.09375 C 2.789062 71.390625 2.941406 71.675781 3.121094 71.945312 C 3.300781 72.214844 3.503906 72.464844 3.734375 72.695312 C 3.964844 72.921875 4.214844 73.128906 4.484375 73.308594 C 4.753906 73.488281 5.035156 73.640625 5.335938 73.765625 C 5.636719 73.890625 5.945312 73.984375 6.261719 74.046875 C 6.578125 74.109375 6.902344 74.140625 7.226562 74.140625 L 103.738281 74.140625 C 104.0625 74.140625 104.386719 74.109375 104.703125 74.046875 C 105.019531 73.984375 105.328125 73.890625 105.628906 73.765625 C 105.929688 73.640625 106.214844 73.488281 106.484375 73.308594 C 106.753906 73.128906 107 72.921875 107.230469 72.695312 C 107.460938 72.464844 107.664062 72.214844 107.84375 71.945312 C 108.023438 71.675781 108.175781 71.390625 108.300781 71.09375 C 108.425781 70.792969 108.519531 70.484375 108.582031 70.164062 C 108.648438 69.847656 108.679688 69.527344 108.679688 69.203125 L 108.679688 17.570312 C 108.679688 17.246094 108.648438 16.925781 108.582031 16.609375 C 108.519531 16.289062 108.425781 15.980469 108.300781 15.683594 C 108.175781 15.382812 108.023438 15.097656 107.84375 14.828125 C 107.664062 14.558594 107.460938 14.308594 107.230469 14.082031 C 107 13.851562 106.753906 13.644531 106.484375 13.464844 C 106.214844 13.285156 105.929688 13.132812 105.628906 13.007812 C 105.328125 12.886719 105.019531 12.792969 104.703125 12.726562 C 104.386719 12.664062 104.0625 12.632812 103.738281 12.632812 L 72.964844 12.632812 C 72.585938 12.632812 72.304688 12.46875 72.117188 12.140625 L 67.386719 3.949219 L 42.238281 3.949219 L 37.507812 12.140625 C 37.320312 12.46875 37.039062 12.632812 36.660156 12.632812 Z M 7.226562 12.632812 " fill-opacity="1" fill-rule="nonzero"/></g><path fill="#558acf" d="M 24.34375 12.632812 L 10.230469 12.632812 C 9.960938 12.632812 9.730469 12.535156 9.539062 12.34375 C 9.347656 12.152344 9.25 11.921875 9.25 11.652344 L 9.25 7.617188 C 9.25 7.164062 9.339844 6.730469 9.511719 6.3125 C 9.683594 5.894531 9.933594 5.523438 10.253906 5.203125 C 10.570312 4.882812 10.941406 4.636719 11.359375 4.464844 C 11.777344 4.289062 12.210938 4.203125 12.664062 4.203125 L 21.910156 4.203125 C 22.363281 4.203125 22.796875 4.289062 23.214844 4.464844 C 23.632812 4.636719 24 4.882812 24.320312 5.203125 C 24.640625 5.523438 24.886719 5.894531 25.0625 6.3125 C 25.234375 6.730469 25.324219 7.164062 25.324219 7.617188 L 25.324219 11.652344 C 25.324219 11.921875 25.226562 12.152344 25.035156 12.34375 C 24.84375 12.535156 24.613281 12.632812 24.34375 12.632812 Z M 11.207031 10.675781 L 23.367188 10.675781 L 23.367188 7.617188 C 23.367188 7.421875 23.328125 7.238281 23.253906 7.058594 C 23.179688 6.882812 23.074219 6.722656 22.9375 6.585938 C 22.800781 6.449219 22.644531 6.34375 22.464844 6.269531 C 22.289062 6.195312 22.101562 6.160156 21.910156 6.160156 L 12.664062 6.160156 C 12.472656 6.160156 12.285156 6.195312 12.109375 6.269531 C 11.929688 6.34375 11.773438 6.449219 11.636719 6.585938 C 11.5 6.722656 11.394531 6.882812 11.320312 7.058594 C 11.246094 7.238281 11.207031 7.421875 11.207031 7.617188 Z M 11.207031 10.675781 " fill-opacity="1" fill-rule="nonzero"/><g clip-path="url(#1fc822fdc4)"><path fill="#ffffff" d="M 56.523438 1.984375 L 122.222656 1.984375 L 122.222656 78.203125 L 56.523438 78.203125 Z M 56.523438 1.984375 " fill-opacity="1" fill-rule="nonzero"/></g><g clip-path="url(#03cd2370a9)"><path stroke-linecap="butt" transform="matrix(0.00467703, -0.747612, 0.747612, 0.00467703, 62.15532, 76.118298)" fill="none" stroke-linejoin="miter" d="M -0.000625887 0.49762 L 101.81836 0.498091 " stroke="#558acf" stroke-width="1" stroke-opacity="1" stroke-miterlimit="4"/></g><g fill="#ff5757" fill-opacity="1"><g transform="translate(70.345175, 33.920924)"><g><path d="M 5.703125 0.21875 C 4.691406 0.21875 3.710938 0.0820312 2.765625 -0.1875 C 1.828125 -0.457031 1.078125 -0.8125 0.515625 -1.25 L 1.515625 -3.484375 C 2.054688 -3.078125 2.703125 -2.75 3.453125 -2.5 C 4.210938 -2.257812 4.96875 -2.140625 5.71875 -2.140625 C 6.550781 -2.140625 7.164062 -2.265625 7.5625 -2.515625 C 7.96875 -2.765625 8.171875 -3.097656 8.171875 -3.515625 C 8.171875 -3.816406 8.050781 -4.066406 7.8125 -4.265625 C 7.582031 -4.460938 7.28125 -4.625 6.90625 -4.75 C 6.539062 -4.875 6.039062 -5.007812 5.40625 -5.15625 C 4.4375 -5.382812 3.640625 -5.613281 3.015625 -5.84375 C 2.398438 -6.070312 1.867188 -6.441406 1.421875 -6.953125 C 0.984375 -7.460938 0.765625 -8.144531 0.765625 -9 C 0.765625 -9.738281 0.960938 -10.40625 1.359375 -11 C 1.765625 -11.601562 2.367188 -12.078125 3.171875 -12.421875 C 3.984375 -12.773438 4.972656 -12.953125 6.140625 -12.953125 C 6.953125 -12.953125 7.742188 -12.851562 8.515625 -12.65625 C 9.296875 -12.46875 9.976562 -12.191406 10.5625 -11.828125 L 9.640625 -9.59375 C 8.460938 -10.257812 7.285156 -10.59375 6.109375 -10.59375 C 5.285156 -10.59375 4.675781 -10.457031 4.28125 -10.1875 C 3.882812 -9.925781 3.6875 -9.578125 3.6875 -9.140625 C 3.6875 -8.703125 3.914062 -8.375 4.375 -8.15625 C 4.832031 -7.945312 5.53125 -7.738281 6.46875 -7.53125 C 7.4375 -7.300781 8.226562 -7.070312 8.84375 -6.84375 C 9.46875 -6.613281 10 -6.25 10.4375 -5.75 C 10.882812 -5.25 11.109375 -4.578125 11.109375 -3.734375 C 11.109375 -3.003906 10.90625 -2.335938 10.5 -1.734375 C 10.09375 -1.140625 9.476562 -0.664062 8.65625 -0.3125 C 7.84375 0.0390625 6.859375 0.21875 5.703125 0.21875 Z M 5.703125 0.21875 "/></g></g></g><g fill="#ff5757" fill-opacity="1"><g transform="translate(85.59813, 33.920924)"><g><path d="M 4.15625 -10.34375 L 0.078125 -10.34375 L 0.078125 -12.734375 L 11.171875 -12.734375 L 11.171875 -10.34375 L 7.09375 -10.34375 L 7.09375 0 L 4.15625 0 Z M 4.15625 -10.34375 "/></g></g></g><g fill="#ff5757" fill-opacity="1"><g transform="translate(100.487083, 33.920924)"><g><path d="M 7.171875 0.21875 C 5.347656 0.21875 3.929688 -0.28125 2.921875 -1.28125 C 1.910156 -2.289062 1.40625 -3.734375 1.40625 -5.609375 L 1.40625 -12.734375 L 4.34375 -12.734375 L 4.34375 -5.71875 C 4.34375 -3.4375 5.289062 -2.296875 7.1875 -2.296875 C 8.113281 -2.296875 8.816406 -2.570312 9.296875 -3.125 C 9.785156 -3.675781 10.03125 -4.539062 10.03125 -5.71875 L 10.03125 -12.734375 L 12.9375 -12.734375 L 12.9375 -5.609375 C 12.9375 -3.734375 12.429688 -2.289062 11.421875 -1.28125 C 10.410156 -0.28125 8.992188 0.21875 7.171875 0.21875 Z M 7.171875 0.21875 "/></g></g></g><g fill="#ff5757" fill-opacity="1"><g transform="translate(118.470043, 33.920924)"><g><path d="M 1.515625 -12.734375 L 7.296875 -12.734375 C 8.679688 -12.734375 9.90625 -12.46875 10.96875 -11.9375 C 12.03125 -11.414062 12.851562 -10.675781 13.4375 -9.71875 C 14.03125 -8.757812 14.328125 -7.644531 14.328125 -6.375 C 14.328125 -5.09375 14.03125 -3.972656 13.4375 -3.015625 C 12.851562 -2.054688 12.03125 -1.3125 10.96875 -0.78125 C 9.90625 -0.257812 8.679688 0 7.296875 0 L 1.515625 0 Z M 7.15625 -2.421875 C 8.425781 -2.421875 9.441406 -2.773438 10.203125 -3.484375 C 10.960938 -4.191406 11.34375 -5.15625 11.34375 -6.375 C 11.34375 -7.582031 10.960938 -8.539062 10.203125 -9.25 C 9.441406 -9.96875 8.425781 -10.328125 7.15625 -10.328125 L 4.453125 -10.328125 L 4.453125 -2.421875 Z M 7.15625 -2.421875 "/></g></g></g><g fill="#ff5757" fill-opacity="1"><g transform="translate(137.144612, 33.920924)"><g><path d="M 1.515625 -12.734375 L 4.453125 -12.734375 L 4.453125 0 L 1.515625 0 Z M 1.515625 -12.734375 "/></g></g></g><g fill="#ff5757" fill-opacity="1"><g transform="translate(146.755559, 33.920924)"><g><path d="M 7.6875 0.21875 C 6.363281 0.21875 5.171875 -0.0664062 4.109375 -0.640625 C 3.046875 -1.210938 2.210938 -2 1.609375 -3 C 1.003906 -4 0.703125 -5.125 0.703125 -6.375 C 0.703125 -7.625 1.003906 -8.75 1.609375 -9.75 C 2.210938 -10.75 3.046875 -11.53125 4.109375 -12.09375 C 5.171875 -12.664062 6.363281 -12.953125 7.6875 -12.953125 C 9.007812 -12.953125 10.195312 -12.664062 11.25 -12.09375 C 12.300781 -11.53125 13.128906 -10.75 13.734375 -9.75 C 14.347656 -8.75 14.65625 -7.625 14.65625 -6.375 C 14.65625 -5.125 14.347656 -4 13.734375 -3 C 13.128906 -2 12.300781 -1.210938 11.25 -0.640625 C 10.195312 -0.0664062 9.007812 0.21875 7.6875 0.21875 Z M 7.6875 -2.296875 C 8.4375 -2.296875 9.113281 -2.46875 9.71875 -2.8125 C 10.320312 -3.15625 10.796875 -3.632812 11.140625 -4.25 C 11.492188 -4.875 11.671875 -5.582031 11.671875 -6.375 C 11.671875 -7.15625 11.492188 -7.851562 11.140625 -8.46875 C 10.796875 -9.09375 10.320312 -9.578125 9.71875 -9.921875 C 9.113281 -10.273438 8.4375 -10.453125 7.6875 -10.453125 C 6.925781 -10.453125 6.242188 -10.273438 5.640625 -9.921875 C 5.035156 -9.578125 4.554688 -9.09375 4.203125 -8.46875 C 3.859375 -7.851562 3.6875 -7.15625 3.6875 -6.375 C 3.6875 -5.582031 3.859375 -4.875 4.203125 -4.25 C 4.554688 -3.632812 5.035156 -3.15625 5.640625 -2.8125 C 6.242188 -2.46875 6.925781 -2.296875 7.6875 -2.296875 Z M 7.6875 -2.296875 "/></g></g></g><g fill="#ff5757" fill-opacity="1"><g transform="translate(165.757722, 33.920924)"><g/></g></g><g fill="#ff5757" fill-opacity="1"><g transform="translate(174.549681, 33.920924)"><g><path d="M 13.109375 0 L 13.09375 -7.640625 L 9.34375 -1.34375 L 8.015625 -1.34375 L 4.28125 -7.484375 L 4.28125 0 L 1.515625 0 L 1.515625 -12.734375 L 3.953125 -12.734375 L 8.71875 -4.828125 L 13.421875 -12.734375 L 15.84375 -12.734375 L 15.875 0 Z M 13.109375 0 "/></g></g></g><g fill="#ff5757" fill-opacity="1"><g transform="translate(195.572048, 33.920924)"><g><path d="M 1.515625 -12.734375 L 4.453125 -12.734375 L 4.453125 0 L 1.515625 0 Z M 1.515625 -12.734375 "/></g></g></g><g fill="#ff5757" fill-opacity="1"><g transform="translate(205.183001, 33.920924)"><g><path d="M 9.53125 0 L 6.46875 -4.421875 L 3.4375 0 L 0.046875 0 L 4.765625 -6.484375 L 0.296875 -12.734375 L 3.640625 -12.734375 L 6.578125 -8.609375 L 9.453125 -12.734375 L 12.640625 -12.734375 L 8.1875 -6.59375 L 12.9375 0 Z M 9.53125 0 "/></g></g></g><g fill="#ffde59" fill-opacity="1"><g transform="translate(70.345175, 59.591705)"><g><path d="M 6.84375 -12.734375 C 8.46875 -12.734375 9.738281 -12.34375 10.65625 -11.5625 C 11.582031 -10.789062 12.046875 -9.726562 12.046875 -8.375 C 12.046875 -7.007812 11.582031 -5.941406 10.65625 -5.171875 C 9.738281 -4.398438 8.46875 -4.015625 6.84375 -4.015625 L 3.421875 -4.015625 L 3.421875 0 L 2.078125 0 L 2.078125 -12.734375 Z M 6.8125 -5.203125 C 8.070312 -5.203125 9.035156 -5.476562 9.703125 -6.03125 C 10.367188 -6.582031 10.703125 -7.363281 10.703125 -8.375 C 10.703125 -9.40625 10.367188 -10.195312 9.703125 -10.75 C 9.035156 -11.300781 8.070312 -11.578125 6.8125 -11.578125 L 3.421875 -11.578125 L 3.421875 -5.203125 Z M 6.8125 -5.203125 "/></g></g></g><g fill="#ffde59" fill-opacity="1"><g transform="translate(86.38048, 59.591705)"><g><path d="M 12.71875 -12.734375 L 12.71875 0 L 11.390625 0 L 11.390625 -5.875 L 3.421875 -5.875 L 3.421875 0 L 2.078125 0 L 2.078125 -12.734375 L 3.421875 -12.734375 L 3.421875 -7.0625 L 11.390625 -7.0625 L 11.390625 -12.734375 Z M 12.71875 -12.734375 "/></g></g></g><g fill="#ffde59" fill-opacity="1"><g transform="translate(104.144796, 59.591705)"><g><path d="M 7.640625 0.109375 C 6.378906 0.109375 5.234375 -0.171875 4.203125 -0.734375 C 3.179688 -1.296875 2.382812 -2.066406 1.8125 -3.046875 C 1.238281 -4.035156 0.953125 -5.144531 0.953125 -6.375 C 0.953125 -7.59375 1.238281 -8.691406 1.8125 -9.671875 C 2.382812 -10.660156 3.179688 -11.4375 4.203125 -12 C 5.234375 -12.5625 6.378906 -12.84375 7.640625 -12.84375 C 8.898438 -12.84375 10.035156 -12.5625 11.046875 -12 C 12.066406 -11.445312 12.867188 -10.675781 13.453125 -9.6875 C 14.035156 -8.695312 14.328125 -7.59375 14.328125 -6.375 C 14.328125 -5.144531 14.035156 -4.035156 13.453125 -3.046875 C 12.867188 -2.054688 12.066406 -1.28125 11.046875 -0.71875 C 10.035156 -0.164062 8.898438 0.109375 7.640625 0.109375 Z M 7.640625 -1.09375 C 8.648438 -1.09375 9.5625 -1.316406 10.375 -1.765625 C 11.1875 -2.222656 11.820312 -2.851562 12.28125 -3.65625 C 12.75 -4.46875 12.984375 -5.375 12.984375 -6.375 C 12.984375 -7.363281 12.75 -8.257812 12.28125 -9.0625 C 11.820312 -9.875 11.1875 -10.507812 10.375 -10.96875 C 9.5625 -11.425781 8.648438 -11.65625 7.640625 -11.65625 C 6.640625 -11.65625 5.726562 -11.425781 4.90625 -10.96875 C 4.082031 -10.507812 3.4375 -9.875 2.96875 -9.0625 C 2.507812 -8.257812 2.28125 -7.363281 2.28125 -6.375 C 2.28125 -5.375 2.507812 -4.46875 2.96875 -3.65625 C 3.4375 -2.851562 4.082031 -2.222656 4.90625 -1.765625 C 5.726562 -1.316406 6.640625 -1.09375 7.640625 -1.09375 Z M 7.640625 -1.09375 "/></g></g></g><g fill="#ffde59" fill-opacity="1"><g transform="translate(122.382312, 59.591705)"><g><path d="M 4.546875 -11.578125 L 0.078125 -11.578125 L 0.078125 -12.734375 L 10.375 -12.734375 L 10.375 -11.578125 L 5.890625 -11.578125 L 5.890625 0 L 4.546875 0 Z M 4.546875 -11.578125 "/></g></g></g><g fill="#ffde59" fill-opacity="1"><g transform="translate(135.796817, 59.591705)"><g><path d="M 7.640625 0.109375 C 6.378906 0.109375 5.234375 -0.171875 4.203125 -0.734375 C 3.179688 -1.296875 2.382812 -2.066406 1.8125 -3.046875 C 1.238281 -4.035156 0.953125 -5.144531 0.953125 -6.375 C 0.953125 -7.59375 1.238281 -8.691406 1.8125 -9.671875 C 2.382812 -10.660156 3.179688 -11.4375 4.203125 -12 C 5.234375 -12.5625 6.378906 -12.84375 7.640625 -12.84375 C 8.898438 -12.84375 10.035156 -12.5625 11.046875 -12 C 12.066406 -11.445312 12.867188 -10.675781 13.453125 -9.6875 C 14.035156 -8.695312 14.328125 -7.59375 14.328125 -6.375 C 14.328125 -5.144531 14.035156 -4.035156 13.453125 -3.046875 C 12.867188 -2.054688 12.066406 -1.28125 11.046875 -0.71875 C 10.035156 -0.164062 8.898438 0.109375 7.640625 0.109375 Z M 7.640625 -1.09375 C 8.648438 -1.09375 9.5625 -1.316406 10.375 -1.765625 C 11.1875 -2.222656 11.820312 -2.851562 12.28125 -3.65625 C 12.75 -4.46875 12.984375 -5.375 12.984375 -6.375 C 12.984375 -7.363281 12.75 -8.257812 12.28125 -9.0625 C 11.820312 -9.875 11.1875 -10.507812 10.375 -10.96875 C 9.5625 -11.425781 8.648438 -11.65625 7.640625 -11.65625 C 6.640625 -11.65625 5.726562 -11.425781 4.90625 -10.96875 C 4.082031 -10.507812 3.4375 -9.875 2.96875 -9.0625 C 2.507812 -8.257812 2.28125 -7.363281 2.28125 -6.375 C 2.28125 -5.375 2.507812 -4.46875 2.96875 -3.65625 C 3.4375 -2.851562 4.082031 -2.222656 4.90625 -1.765625 C 5.726562 -1.316406 6.640625 -1.09375 7.640625 -1.09375 Z M 7.640625 -1.09375 "/></g></g></g><g fill="#ffde59" fill-opacity="1"><g transform="translate(154.034332, 59.591705)"><g><path d="M 5.59375 0.109375 C 4.644531 0.109375 3.734375 -0.0390625 2.859375 -0.34375 C 1.992188 -0.644531 1.328125 -1.046875 0.859375 -1.546875 L 1.390625 -2.578125 C 1.847656 -2.117188 2.457031 -1.742188 3.21875 -1.453125 C 3.988281 -1.171875 4.78125 -1.03125 5.59375 -1.03125 C 6.726562 -1.03125 7.582031 -1.238281 8.15625 -1.65625 C 8.726562 -2.082031 9.015625 -2.628906 9.015625 -3.296875 C 9.015625 -3.804688 8.859375 -4.210938 8.546875 -4.515625 C 8.234375 -4.816406 7.851562 -5.046875 7.40625 -5.203125 C 6.957031 -5.367188 6.332031 -5.550781 5.53125 -5.75 C 4.570312 -5.988281 3.804688 -6.222656 3.234375 -6.453125 C 2.671875 -6.679688 2.1875 -7.023438 1.78125 -7.484375 C 1.375 -7.941406 1.171875 -8.566406 1.171875 -9.359375 C 1.171875 -10.003906 1.335938 -10.585938 1.671875 -11.109375 C 2.015625 -11.640625 2.535156 -12.0625 3.234375 -12.375 C 3.941406 -12.6875 4.816406 -12.84375 5.859375 -12.84375 C 6.585938 -12.84375 7.300781 -12.742188 8 -12.546875 C 8.695312 -12.347656 9.300781 -12.070312 9.8125 -11.71875 L 9.359375 -10.65625 C 8.828125 -11 8.253906 -11.257812 7.640625 -11.4375 C 7.035156 -11.613281 6.441406 -11.703125 5.859375 -11.703125 C 4.742188 -11.703125 3.90625 -11.484375 3.34375 -11.046875 C 2.78125 -10.617188 2.5 -10.066406 2.5 -9.390625 C 2.5 -8.878906 2.648438 -8.46875 2.953125 -8.15625 C 3.265625 -7.851562 3.65625 -7.617188 4.125 -7.453125 C 4.59375 -7.285156 5.21875 -7.109375 6 -6.921875 C 6.9375 -6.691406 7.691406 -6.460938 8.265625 -6.234375 C 8.847656 -6.003906 9.335938 -5.660156 9.734375 -5.203125 C 10.140625 -4.753906 10.34375 -4.144531 10.34375 -3.375 C 10.34375 -2.726562 10.164062 -2.140625 9.8125 -1.609375 C 9.46875 -1.078125 8.9375 -0.65625 8.21875 -0.34375 C 7.507812 -0.0390625 6.632812 0.109375 5.59375 0.109375 Z M 5.59375 0.109375 "/></g></g></g><g fill="#ffde59" fill-opacity="1"><g transform="translate(168.195038, 59.591705)"><g><path d="M 12.71875 -12.734375 L 12.71875 0 L 11.390625 0 L 11.390625 -5.875 L 3.421875 -5.875 L 3.421875 0 L 2.078125 0 L 2.078125 -12.734375 L 3.421875 -12.734375 L 3.421875 -7.0625 L 11.390625 -7.0625 L 11.390625 -12.734375 Z M 12.71875 -12.734375 "/></g></g></g><g fill="#ffde59" fill-opacity="1"><g transform="translate(185.959349, 59.591705)"><g><path d="M 7.640625 0.109375 C 6.378906 0.109375 5.234375 -0.171875 4.203125 -0.734375 C 3.179688 -1.296875 2.382812 -2.066406 1.8125 -3.046875 C 1.238281 -4.035156 0.953125 -5.144531 0.953125 -6.375 C 0.953125 -7.59375 1.238281 -8.691406 1.8125 -9.671875 C 2.382812 -10.660156 3.179688 -11.4375 4.203125 -12 C 5.234375 -12.5625 6.378906 -12.84375 7.640625 -12.84375 C 8.898438 -12.84375 10.035156 -12.5625 11.046875 -12 C 12.066406 -11.445312 12.867188 -10.675781 13.453125 -9.6875 C 14.035156 -8.695312 14.328125 -7.59375 14.328125 -6.375 C 14.328125 -5.144531 14.035156 -4.035156 13.453125 -3.046875 C 12.867188 -2.054688 12.066406 -1.28125 11.046875 -0.71875 C 10.035156 -0.164062 8.898438 0.109375 7.640625 0.109375 Z M 7.640625 -1.09375 C 8.648438 -1.09375 9.5625 -1.316406 10.375 -1.765625 C 11.1875 -2.222656 11.820312 -2.851562 12.28125 -3.65625 C 12.75 -4.46875 12.984375 -5.375 12.984375 -6.375 C 12.984375 -7.363281 12.75 -8.257812 12.28125 -9.0625 C 11.820312 -9.875 11.1875 -10.507812 10.375 -10.96875 C 9.5625 -11.425781 8.648438 -11.65625 7.640625 -11.65625 C 6.640625 -11.65625 5.726562 -11.425781 4.90625 -10.96875 C 4.082031 -10.507812 3.4375 -9.875 2.96875 -9.0625 C 2.507812 -8.257812 2.28125 -7.363281 2.28125 -6.375 C 2.28125 -5.375 2.507812 -4.46875 2.96875 -3.65625 C 3.4375 -2.851562 4.082031 -2.222656 4.90625 -1.765625 C 5.726562 -1.316406 6.640625 -1.09375 7.640625 -1.09375 Z M 7.640625 -1.09375 "/></g></g></g><g fill="#ffde59" fill-opacity="1"><g transform="translate(204.19687, 59.591705)"><g><path d="M 6.84375 -12.734375 C 8.46875 -12.734375 9.738281 -12.34375 10.65625 -11.5625 C 11.582031 -10.789062 12.046875 -9.726562 12.046875 -8.375 C 12.046875 -7.007812 11.582031 -5.941406 10.65625 -5.171875 C 9.738281 -4.398438 8.46875 -4.015625 6.84375 -4.015625 L 3.421875 -4.015625 L 3.421875 0 L 2.078125 0 L 2.078125 -12.734375 Z M 6.8125 -5.203125 C 8.070312 -5.203125 9.035156 -5.476562 9.703125 -6.03125 C 10.367188 -6.582031 10.703125 -7.363281 10.703125 -8.375 C 10.703125 -9.40625 10.367188 -10.195312 9.703125 -10.75 C 9.035156 -11.300781 8.070312 -11.578125 6.8125 -11.578125 L 3.421875 -11.578125 L 3.421875 -5.203125 Z M 6.8125 -5.203125 "/></g></g></g></svg>